<svg width="16" height="16" viewBox="0 0 16 16" fill="none" xmlns="http://www.w3.org/2000/svg">
<g clip-path="url(#clip0_1045_498)">
<path d="M10.2309 2.03243C10.6386 2.03243 11.0376 2.19149 11.3374 2.49166L15.4831 6.64254C16.214 7.37411 16.214 8.56454 15.4831 9.29623L11.3374 13.447C10.888 13.8969 10.216 14.0298 9.62545 13.7854C9.03695 13.5418 8.6567 12.9749 8.6567 12.3414V8.5632L0.656205 8.5632C0.310989 8.5632 0.0312042 8.28329 0.0312042 7.93808C0.0312042 7.59286 0.310989 7.31308 0.656205 7.31308L8.6567 7.31308C9.34603 7.31308 9.90682 7.87387 9.90682 8.5632V12.3414C9.90682 12.5287 10.0444 12.6058 10.1035 12.6303C10.1638 12.6552 10.3182 12.6986 10.453 12.5636L14.5987 8.41281C14.843 8.1683 14.843 7.77047 14.5987 7.52584L10.453 3.37508C10.3182 3.2402 10.1638 3.28353 10.1036 3.30843C10.0444 3.33285 9.90682 3.41 9.90682 3.59725V4.94198C9.90682 5.28719 9.62704 5.5671 9.28182 5.5671C8.93661 5.5671 8.65682 5.28719 8.65682 4.94198V3.59725C8.65682 2.96371 9.03707 2.39693 9.62557 2.1534C9.82199 2.07198 10.0276 2.03243 10.2309 2.03243Z" fill="#00152B"/>
</g>
<defs>
<clipPath id="clip0_1045_498">
<rect width="16" height="16" fill="white" transform="translate(16 16) rotate(-180)"/>
</clipPath>
</defs>
</svg>
