<svg width="15" height="15" viewBox="0 0 15 15" fill="none" xmlns="http://www.w3.org/2000/svg">
<path d="M10.4531 1.56445C8.83303 2.84473 8.54006 3.09082 7.96877 3.66504C7.29787 4.3418 6.70608 5.05371 6.18166 5.81543C6.01467 6.06152 5.82424 6.29297 5.64553 6.46875L5.37014 6.74414L5.09475 6.69434C4.67873 6.62109 3.97268 6.60352 3.62697 6.66211C2.8301 6.79395 2.10647 7.17773 1.64651 7.71387C1.18361 8.25293 0.873068 8.92969 0.741232 9.68262C0.67092 10.0928 0.700216 10.8311 0.802755 11.1709C0.902365 11.5049 1.09279 11.8799 1.30959 12.1729C1.96877 13.0576 3.4717 13.8516 5.24416 14.25C5.91799 14.3994 6.8467 14.5312 7.24221 14.5312C7.41799 14.5312 7.44436 14.5225 7.49709 14.4551C7.59084 14.335 7.57619 14.2031 7.46194 14.1035C7.4092 14.0566 7.02541 13.7871 6.60647 13.5059C6.14943 13.1982 5.77736 12.9258 5.67776 12.8262C5.45803 12.6006 5.33205 12.3486 5.33205 12.1289C5.33205 11.7305 5.52834 11.4756 6.02053 11.2383C6.67092 10.9248 6.9844 10.5879 7.19533 9.97559C7.26858 9.76758 7.27736 9.69727 7.27736 9.36035C7.28029 8.92676 7.2217 8.66895 7.04592 8.37598L6.94924 8.20898L7.21877 7.94824C7.36526 7.80176 7.5967 7.6084 7.7344 7.51465C8.66604 6.87598 9.71193 5.94434 10.4795 5.06836C10.6406 4.88379 11.3028 4.06055 11.9502 3.24316C13.0694 1.8252 13.125 1.74902 13.125 1.63184C13.125 1.51465 13.1104 1.49707 12.6035 0.990235C12.0967 0.48047 12.0791 0.468751 11.9619 0.468751C11.8447 0.468751 11.7744 0.521485 10.4531 1.56445ZM12.2432 1.35938L12.5479 1.66406L12.4014 1.85156C12.3194 1.9541 11.8477 2.54883 11.3526 3.17871C10.2363 4.59082 10.1104 4.74023 9.5801 5.28516C8.95022 5.92969 8.32619 6.47168 7.63186 6.9668L7.33889 7.17773L6.89944 6.73828L6.46291 6.29883L6.61818 6.07324C7.12795 5.33789 7.67287 4.6875 8.33205 4.02832C8.62502 3.73535 8.98537 3.39258 9.13772 3.2666C9.44826 3.00293 11.9004 1.05762 11.9238 1.05469C11.9326 1.05469 12.0762 1.19238 12.2432 1.35938ZM6.78225 7.67578L6.60647 7.85156L6.19631 7.44141L5.78615 7.03125L5.96193 6.85547L6.13772 6.67969L6.54787 7.08984L6.95803 7.5L6.78225 7.67578ZM4.74611 7.15137C4.88381 7.16602 5.06252 7.19824 5.14162 7.21875L5.28811 7.25684L5.11233 7.28027C4.17776 7.39453 3.46584 7.73731 2.90334 8.33789C2.51955 8.74805 2.22365 9.26953 2.09182 9.77051C2.01565 10.0605 2.01565 10.6641 2.09182 10.9219C2.14455 11.0977 2.15334 11.1094 2.22365 11.0947C2.26467 11.0859 2.37307 11.0449 2.46682 11.0039L2.63088 10.9307L2.58401 10.8047C2.54885 10.7139 2.53713 10.582 2.53713 10.3418C2.53713 10.0518 2.54885 9.97266 2.61916 9.77051C2.92678 8.87109 3.66506 8.14746 4.51174 7.91016C4.82522 7.82227 5.24416 7.76367 5.55471 7.76367H5.81838L6.17287 8.12109C6.36623 8.32031 6.55959 8.5459 6.60647 8.62207C6.92873 9.17871 6.83205 9.89941 6.36916 10.4004C6.24026 10.5381 6.14065 10.6084 5.8799 10.7402C5.29397 11.0391 5.10647 11.2031 4.93068 11.5898C4.86916 11.7275 4.85158 11.8154 4.83986 12.0557C4.82522 12.3896 4.86623 12.5332 5.06252 12.8584C5.22365 13.125 5.43459 13.3213 5.90627 13.6377C6.13772 13.7959 6.32815 13.9307 6.32815 13.9365C6.32815 13.9512 6.24611 13.9365 5.65432 13.8223C4.4883 13.5967 3.37209 13.166 2.5635 12.624C1.61721 11.9912 1.20412 11.2852 1.20119 10.3096C1.20119 9.4541 1.53518 8.57813 2.09475 7.97461C2.46682 7.57031 3.126 7.23633 3.70608 7.15137C3.95803 7.11621 4.45608 7.11328 4.74611 7.15137Z" fill="#FF552E"/>
<path d="M6.06445 9.44823C6.06445 9.71484 5.73633 10.0459 5.47266 10.0488H5.39062V10.3008V10.5557L5.56934 10.5381C6.05273 10.4941 6.50976 10.0371 6.55371 9.5537L6.57129 9.37499H6.3164C6.06738 9.37499 6.06445 9.37499 6.06445 9.44823Z" fill="#FF552E"/>
<path d="M2.59863 11.4785L2.43164 11.6484L2.68066 11.8945L2.92969 12.1406L3.10547 11.9678L3.28125 11.7949L3.04102 11.5518C2.90625 11.417 2.79199 11.3086 2.7832 11.3086C2.77441 11.3086 2.69238 11.3848 2.59863 11.4785Z" fill="#FF552E"/>
<path d="M4.45312 1.875V2.10938H4.21875H3.98438V2.34375V2.57813H4.21875H4.45312V2.8125V3.04688H4.6875H4.92187V2.8125V2.57813H5.15625H5.39062V2.34375V2.10938H5.15625H4.92187V1.875V1.64063H4.6875H4.45312V1.875ZM4.92187 2.34375V2.57813H4.6875H4.45312V2.34375V2.10938H4.6875H4.92187V2.34375Z" fill="#FF552E"/>
<path d="M1.58496 2.77734C1.5293 2.80371 1.45605 2.86523 1.42383 2.90918C1.36523 2.98828 1.3623 3.02637 1.37109 3.55664L1.37695 4.12207L1.01074 4.27441C0.547852 4.4707 0.46875 4.54688 0.46875 4.80469C0.46875 4.95703 0.480469 4.99219 0.556641 5.08008C0.65918 5.19727 0.726562 5.2207 1.11328 5.29102C1.26562 5.31738 1.39453 5.34082 1.39746 5.34375C1.40039 5.34668 1.42383 5.55176 1.4502 5.80078C1.47656 6.0498 1.52051 6.29883 1.54395 6.34863C1.6084 6.48926 1.74609 6.5625 1.94238 6.5625C2.16504 6.5625 2.22949 6.50098 2.53711 6.00293C2.6748 5.78027 2.79492 5.5957 2.80371 5.5957C2.80957 5.5957 3.01465 5.64258 3.25781 5.70117C3.76465 5.82422 3.9375 5.82422 4.06055 5.70996C4.20703 5.57227 4.25684 5.37891 4.19238 5.20898C4.17773 5.1709 4.04883 4.99512 3.90527 4.81641C3.76172 4.64063 3.63281 4.47949 3.62109 4.45898C3.60937 4.43848 3.66797 4.32715 3.77637 4.17773C4.03125 3.82617 4.06641 3.69141 3.96094 3.48633C3.89941 3.37207 3.7002 3.25195 3.56836 3.25195C3.52441 3.25195 3.32812 3.31641 3.13184 3.39844C2.93555 3.47754 2.76562 3.54492 2.75684 3.54492C2.74512 3.54492 2.58691 3.38086 2.40234 3.17871C2.2207 2.97949 2.02734 2.79492 1.97461 2.76855C1.85156 2.70996 1.70801 2.71289 1.58496 2.77734ZM2.56934 4.03125C2.7334 4.10156 2.80371 4.08398 3.36328 3.84668C3.38379 3.83789 3.33398 3.92578 3.25488 4.04297C3.00293 4.40625 3.01465 4.50879 3.33398 4.91602C3.45996 5.07129 3.57129 5.21484 3.58301 5.23242C3.59473 5.25 3.44824 5.22949 3.24316 5.18262C2.80078 5.08008 2.64844 5.07422 2.51953 5.16211C2.45801 5.20313 2.33496 5.36719 2.2002 5.58691C2.07715 5.7832 1.97461 5.93555 1.97168 5.92383C1.96875 5.91211 1.94531 5.72461 1.92187 5.50781C1.86035 4.97168 1.80469 4.9043 1.3623 4.8252L1.12793 4.78418L1.30371 4.70801C1.64062 4.55859 1.74316 4.49707 1.81055 4.39453C1.88086 4.29492 1.88086 4.2832 1.86621 3.81152L1.84863 3.32813L2.16211 3.66211C2.33203 3.84375 2.5166 4.01074 2.56934 4.03125Z" fill="#FF552E"/>
<path d="M4.92188 4.6875V4.92188H5.15625H5.39062V4.6875V4.45313H5.15625H4.92188V4.6875Z" fill="#FF552E"/>
<path d="M8.12988 9.43066C7.875 9.54785 7.73438 9.78222 7.73438 10.084C7.73438 10.3008 7.80176 10.4619 7.94238 10.5967C8.13867 10.7842 8.12109 10.7812 9.61523 10.7812C10.875 10.7812 10.9805 10.7754 11.0889 10.7256C11.3408 10.6084 11.4844 10.374 11.4844 10.0781C11.4844 9.78222 11.3408 9.54785 11.0889 9.43066C10.9805 9.38086 10.875 9.375 9.60937 9.375C8.34375 9.375 8.23828 9.38086 8.12988 9.43066ZM10.8545 9.88476C11.0332 9.96093 11.0332 10.1953 10.8545 10.2715C10.7051 10.333 8.51367 10.333 8.36426 10.2715C8.18848 10.1982 8.18555 9.96093 8.3584 9.88769C8.49902 9.82617 10.708 9.82617 10.8545 9.88476Z" fill="#FF552E"/>
<path d="M12.3486 9.43065C12.0937 9.54784 11.9531 9.78222 11.9531 10.084C11.9561 10.5 12.2373 10.7812 12.6562 10.7812C13.0781 10.7812 13.3594 10.5 13.3594 10.0781C13.3594 9.77343 13.2041 9.53026 12.9434 9.42186C12.791 9.35741 12.4951 9.36327 12.3486 9.43065ZM12.8027 9.93163C12.835 9.96386 12.8613 10.0283 12.8613 10.0781C12.8613 10.1279 12.835 10.1924 12.8027 10.2246C12.7705 10.2568 12.7061 10.2832 12.6562 10.2832C12.6064 10.2832 12.542 10.2568 12.5098 10.2246C12.4775 10.1924 12.4512 10.1279 12.4512 10.0781C12.4512 10.0283 12.4775 9.96386 12.5098 9.93163C12.542 9.89941 12.6064 9.87304 12.6562 9.87304C12.7061 9.87304 12.7705 9.89941 12.8027 9.93163Z" fill="#FF552E"/>
<path d="M8.00684 11.3262C7.86328 11.4111 7.73437 11.6074 7.73437 11.7422C7.73437 11.7979 7.71094 11.8594 7.67578 11.8945C7.62012 11.9502 7.5791 11.9531 7.05469 11.9531C6.50684 11.9531 6.49219 11.9561 6.36914 12.0264C6.29297 12.0703 6.21094 12.1523 6.16699 12.2285C6.10254 12.3369 6.09375 12.3867 6.09375 12.6211V12.8906H6.32812H6.5625V12.7148C6.5625 12.4248 6.56836 12.4219 7.24219 12.4219C7.79004 12.4219 7.80469 12.4189 7.92773 12.3486C8.07422 12.2637 8.20312 12.0674 8.20312 11.9297C8.20312 11.874 8.22656 11.8125 8.26172 11.7773C8.32031 11.7188 8.3584 11.7188 10.1221 11.7188C11.6221 11.7188 11.9414 11.7246 12.0264 11.7598C12.1348 11.8066 12.1787 11.9004 12.1465 12.0293C12.1143 12.1553 11.9824 12.1875 11.499 12.1875C11.0244 12.1875 10.9248 12.2109 10.7549 12.3721C10.6113 12.5098 10.5469 12.665 10.5469 12.8906C10.5469 13.1162 10.6113 13.2715 10.7549 13.4092C10.9424 13.585 10.9922 13.5938 11.8506 13.5938C12.46 13.5938 12.6504 13.6025 12.7295 13.6348C12.8379 13.6816 12.8818 13.7754 12.8496 13.9043C12.8086 14.0625 12.8145 14.0625 10.5322 14.0625H8.4375V14.2969V14.5312H10.6436C12.7266 14.5312 12.8525 14.5283 12.9639 14.4756C13.2158 14.3584 13.3594 14.124 13.3594 13.8281C13.3594 13.6172 13.3037 13.4707 13.1748 13.333C12.9873 13.1367 12.9375 13.125 12.0615 13.125C11.4492 13.125 11.2559 13.1162 11.1768 13.084C11.0684 13.0371 11.0244 12.9434 11.0566 12.8145C11.0889 12.6885 11.2207 12.6563 11.71 12.6563C12.1963 12.6563 12.3018 12.627 12.4717 12.4482C12.6006 12.3105 12.6562 12.1641 12.6562 11.9531C12.6562 11.6572 12.5127 11.4229 12.2607 11.3057C12.1494 11.2529 12.0293 11.25 10.1367 11.25H8.12988L8.00684 11.3262Z" fill="#FF552E"/>
<path d="M13.2861 11.3057C13.0312 11.4228 12.8906 11.6572 12.8906 11.959C12.8936 12.375 13.1748 12.6562 13.5937 12.6562C14.0156 12.6562 14.2969 12.375 14.2969 11.9531C14.2969 11.6484 14.1416 11.4053 13.8809 11.2969C13.7285 11.2324 13.4326 11.2383 13.2861 11.3057ZM13.7402 11.8066C13.7725 11.8389 13.7988 11.9033 13.7988 11.9531C13.7988 12.0029 13.7725 12.0674 13.7402 12.0996C13.6143 12.2256 13.3887 12.1318 13.3887 11.9531C13.3887 11.8418 13.4824 11.748 13.5937 11.748C13.6436 11.748 13.708 11.7744 13.7402 11.8066Z" fill="#FF552E"/>
</svg>
