<svg width="81" height="81" viewBox="0 0 81 81" fill="none" xmlns="http://www.w3.org/2000/svg">
<g opacity="0.1">
<path d="M51.5747 34.8081L57.1696 40.4031C56.2161 42.0326 56.4291 44.1562 57.8149 45.542C59.4775 47.2046 62.1829 47.2046 63.8455 45.5419L77.375 32.0124C79.0377 30.3497 79.0377 27.6444 77.3751 25.9817C75.9893 24.596 73.8658 24.3829 72.2362 25.3365L55.381 8.48125C56.3319 6.84908 56.1092 4.71579 54.7121 3.31873C53.0494 1.656 50.3441 1.656 48.6813 3.31873L35.1519 16.8482C33.4893 18.5108 33.4893 21.2161 35.152 22.8788C36.5491 24.2759 38.6822 24.4985 40.3145 23.5478L45.9103 29.1436L35.3778 39.6761C34.7744 39.1825 33.8834 39.217 33.3205 39.7798L14.6625 58.4378C12.5622 60.5384 12.5622 63.9556 14.6625 66.056C16.7629 68.1564 20.1802 68.1564 22.2807 66.0559L40.9385 47.3981C41.5014 46.8352 41.5359 45.9439 41.0422 45.3408L51.5748 34.8082L51.5747 34.8081ZM42.5861 21.4755L53.3085 10.7531L69.9653 27.4098L59.2429 38.1322L42.5861 21.4755ZM73.5411 28.1783C74.014 27.7054 74.7441 27.6946 75.2033 28.1538C75.6682 28.6187 75.6683 29.3753 75.2032 29.8404L61.6737 43.3699C61.2087 43.8348 60.4523 43.835 59.9872 43.3699C59.5279 42.9106 59.5388 42.1806 60.0116 41.7078L73.5411 28.1783ZM39.0106 20.7069C38.5457 21.1718 37.7892 21.1719 37.3241 20.7068C36.8589 20.2417 36.8589 19.4852 37.3239 19.0202L50.8535 5.49067C51.3184 5.02577 52.0751 5.02555 52.5402 5.49067C53.0053 5.95579 53.0053 6.71224 52.5402 7.17736L39.0106 20.7069ZM49.4026 32.6361L38.8756 43.1631L37.5554 41.8429L48.0825 31.3159L49.4026 32.6361ZM16.8346 63.884C15.9319 62.9813 15.9321 61.5127 16.8347 60.6102L34.4065 43.0383L37.6803 46.3121L20.1086 63.8839C19.2058 64.7864 17.737 64.7864 16.8346 63.884Z" fill="#D90A2C"/>
<path d="M66.7914 28.4778C67.3912 27.878 67.3911 26.9054 66.7914 26.3057L60.3838 19.8981C59.7841 19.2984 58.8115 19.2983 58.2117 19.8981C57.6119 20.4979 57.612 21.4704 58.2117 22.0702L64.6193 28.4778C65.2191 29.0775 66.1916 29.0776 66.7914 28.4778Z" fill="#D90A2C"/>
<path d="M57.3429 19.0293C57.9427 18.4295 57.9426 17.457 57.3429 16.8572L57.017 16.5314C56.4173 15.9317 55.4448 15.9316 54.845 16.5314C54.2451 17.1312 54.2453 18.1037 54.845 18.7035L55.1708 19.0293C55.7705 19.629 56.743 19.6291 57.3429 19.0293Z" fill="#D90A2C"/>
</g>
</svg>
