<svg width="13" height="13" viewBox="0 0 13 13" fill="none" xmlns="http://www.w3.org/2000/svg">
<path d="M1.14778 0.0507593C0.871023 0.124393 0.672976 0.23865 0.454617 0.457009C0.317508 0.591579 0.236258 0.700759 0.170242 0.830252C0.0077419 1.15779 -0.00241434 1.26697 0.00520285 2.30037L0.01282 3.21697L0.0813747 3.31853C0.160086 3.43787 0.276883 3.51658 0.411453 3.54197L0.507937 3.55974L0.513015 7.43689C0.520633 11.6644 0.510476 11.3369 0.660281 11.7355C0.827859 12.1849 1.32298 12.6801 1.77239 12.8476C2.15833 12.9924 2.06946 12.9873 4.07786 12.9873H5.93138L6.03548 12.9187C6.1929 12.8146 6.25891 12.6902 6.25891 12.4922C6.25891 12.2941 6.1929 12.1697 6.03548 12.0656L5.93138 11.997L4.11595 11.9844L2.29798 11.9717L2.12786 11.8904C1.89173 11.7787 1.74446 11.6365 1.6302 11.4054L1.53626 11.2125L1.52864 7.38357L1.52356 3.55467H6.49759H11.4741L11.4818 4.65408L11.4894 5.75349L11.5579 5.8576C11.662 6.01502 11.7865 6.08103 11.9845 6.08103C12.1825 6.08103 12.307 6.01502 12.4111 5.8576L12.4796 5.75349L12.4872 4.65662L12.4949 3.55974L12.5888 3.54197C12.7234 3.51658 12.8402 3.43787 12.9189 3.31853L12.9874 3.21697L12.995 2.30037C13.0027 1.26697 12.9925 1.15779 12.83 0.830252C12.764 0.700759 12.6827 0.591579 12.5456 0.457009C12.3247 0.236111 12.1292 0.124393 11.8423 0.0507593C11.6493 -2.19345e-05 11.5452 -2.19345e-05 6.48997 0.00251675C1.49563 0.00251675 1.32805 0.00505638 1.14778 0.0507593ZM11.7382 1.08924C11.7915 1.12224 11.8652 1.19588 11.9033 1.25174L11.9718 1.3533L11.9794 1.94744L11.987 2.53904H6.50266H1.01575V1.99822C1.01575 1.69861 1.02845 1.41677 1.04368 1.36345C1.07669 1.24412 1.23919 1.07654 1.35091 1.04353C1.40423 1.0283 3.36438 1.02068 6.53821 1.02322L11.6417 1.0283L11.7382 1.08924Z" fill="#FF552E"/>
<path d="M5.15962 4.59824C5.04028 4.63379 4.88286 4.80137 4.84731 4.93086C4.78891 5.15684 4.87778 5.39297 5.07075 5.5123L5.16723 5.57324H6.47485H7.78247L7.87895 5.5123C7.93227 5.4793 8.0059 5.40566 8.04399 5.3498C8.10239 5.26348 8.11255 5.21777 8.11255 5.07812C8.11255 4.93848 8.10239 4.89277 8.04399 4.80644C8.0059 4.75058 7.93227 4.67695 7.87895 4.64394L7.78247 4.58301L6.51294 4.57793C5.75629 4.57539 5.2104 4.58301 5.15962 4.59824Z" fill="#FF552E"/>
<path d="M9.17876 6.14712C8.39673 6.25376 7.69849 6.61177 7.13989 7.19575C6.68286 7.6731 6.40103 8.21392 6.2563 8.88931C6.19028 9.18892 6.19028 9.90493 6.2563 10.2045C6.51782 11.4208 7.36333 12.3907 8.49321 12.7792C8.91216 12.9213 9.14829 12.9594 9.6231 12.9594C10.2223 12.962 10.6286 12.8655 11.1592 12.604C11.959 12.2079 12.604 11.4614 12.8731 10.6184C13.0381 10.1106 13.0305 9.90747 12.8477 9.72466C12.6319 9.50884 12.2586 9.53423 12.0834 9.78052C12.053 9.82114 11.9997 9.96587 11.9667 10.1004C11.7407 10.9917 11.0932 11.6493 10.2071 11.8854C10.0268 11.9362 9.93032 11.9438 9.6104 11.9438C9.15337 11.9413 8.95786 11.8981 8.56685 11.7051C6.76411 10.8266 6.76411 8.26724 8.56685 7.38872C8.9604 7.19575 9.15337 7.15259 9.6104 7.15259C9.88208 7.15259 10.0395 7.16274 10.1563 7.19321C10.3772 7.24907 10.4991 7.24653 10.6336 7.18306C10.8444 7.07895 10.9612 6.81997 10.8952 6.59907C10.8596 6.48228 10.7403 6.33501 10.6336 6.28169C10.4102 6.16489 9.59263 6.08872 9.17876 6.14712Z" fill="#FF552E"/>
<path d="M11.9338 7.39117C11.8678 7.41148 11.6342 7.6273 11.0198 8.23414C10.5653 8.68355 10.0651 9.17613 9.91019 9.32847L9.62582 9.60777L9.25004 9.2396C8.92758 8.92222 8.85648 8.86636 8.75492 8.83843C8.32836 8.7191 7.96019 9.14312 8.15062 9.53413C8.2141 9.66616 9.06469 10.5117 9.20434 10.5828C9.45824 10.7097 9.76293 10.7097 10.027 10.5828C10.1946 10.5015 12.4518 8.27476 12.5508 8.09449C12.6346 7.93707 12.6371 7.82281 12.5584 7.65015C12.4518 7.42418 12.1903 7.315 11.9338 7.39117Z" fill="#FF552E"/>
</svg>
