<svg width="30" height="13" viewBox="0 0 30 13" fill="none" xmlns="http://www.w3.org/2000/svg">
<path d="M0.0250063 6.86415C0.125078 7.09519 0.337732 7.31408 0.569149 7.41744C0.781803 7.50864 0.981948 7.53296 1.73249 7.53296C2.55809 7.53296 2.67067 7.5208 2.92085 7.39312C3.30237 7.21072 3.49626 6.87631 3.46499 6.48111C3.43372 6.15279 3.29612 5.92782 2.98339 5.7211C2.7895 5.59342 2.71445 5.58734 1.73249 5.58734C0.75053 5.58734 0.675476 5.59342 0.481586 5.7211C0.16886 5.9339 0.0312607 6.15279 0.00624247 6.48111C-0.00626639 6.63919 -1.19523e-05 6.81551 0.0250063 6.86415Z" fill="#D90A2C"/>
<path d="M5.31006 7.04693C5.39137 7.15637 5.53522 7.30837 5.62904 7.37525C5.80416 7.49685 5.87296 7.50293 7.98699 7.50293C10.101 7.50293 10.1698 7.49685 10.3449 7.37525C10.6827 7.13205 10.814 6.8706 10.789 6.49364C10.7577 6.09844 10.5889 5.83091 10.2761 5.68499C10.0948 5.59987 9.77578 5.58771 7.97448 5.58771C5.93551 5.58771 5.88547 5.59379 5.6478 5.72755C5.18497 5.98291 5.02235 6.63348 5.31006 7.04693Z" fill="#D90A2C"/>
<path d="M12.5341 6.86431C12.6216 7.07103 12.8218 7.29599 13.0094 7.39935C13.1971 7.49663 13.6912 7.50271 19.7143 7.53311L26.219 7.56351L23.861 9.50305C22.3287 10.7616 21.4655 11.5156 21.403 11.6432C21.1903 12.081 21.3842 12.6708 21.8095 12.8896C22.0535 13.0234 22.5225 13.0356 22.7289 12.9261C22.804 12.8836 24.4239 11.5703 26.3378 10.0016C28.677 8.08032 29.8403 7.08319 29.9091 6.95551C30.0968 6.56031 29.9904 6.12862 29.6214 5.78814C29.0022 5.22877 22.6852 0.151923 22.5163 0.0789627C22.2473 -0.0365588 22.0159 -0.0243985 21.7095 0.109363C21.2154 0.328246 21.0027 0.984891 21.2716 1.42874C21.3342 1.5321 22.4663 2.49275 23.786 3.55676C25.0994 4.62685 26.1814 5.51454 26.1814 5.53886C26.1877 5.56926 23.2668 5.5875 19.6892 5.5875L13.1971 5.5875L12.9907 5.72126C12.6779 5.93406 12.5403 6.15294 12.5153 6.48126C12.5028 6.63935 12.5091 6.81567 12.5341 6.86431Z" fill="#D90A2C"/>
</svg>
