<svg width="30" height="13" viewBox="0 0 30 13" fill="none" xmlns="http://www.w3.org/2000/svg">
<path d="M29.9749 6.13585C29.8749 5.90481 29.6622 5.68592 29.4308 5.58256C29.2181 5.49136 29.018 5.46704 28.2674 5.46704C27.4419 5.46704 27.3293 5.4792 27.0791 5.60688C26.6976 5.78928 26.5037 6.12369 26.5349 6.51889C26.5662 6.84721 26.7038 7.07218 27.0165 7.2789C27.2104 7.40658 27.2855 7.41266 28.2674 7.41266C29.2494 7.41266 29.3245 7.40658 29.5184 7.2789C29.8311 7.0661 29.9687 6.84721 29.9937 6.51889C30.0062 6.36081 30 6.18449 29.9749 6.13585Z" fill="#D90A2C"/>
<path d="M24.6899 5.95307C24.6086 5.84363 24.4647 5.69163 24.3709 5.62475C24.1958 5.50315 24.127 5.49707 22.0129 5.49707C19.8989 5.49707 19.8301 5.50315 19.655 5.62475C19.3173 5.86795 19.1859 6.1294 19.2109 6.50636C19.2422 6.90156 19.4111 7.16909 19.7238 7.31501C19.9052 7.40013 20.2242 7.41229 22.0255 7.41229C24.0644 7.41229 24.1145 7.40621 24.3521 7.27245C24.815 7.01709 24.9776 6.36652 24.6899 5.95307Z" fill="#D90A2C"/>
<path d="M17.4659 6.13569C17.3783 5.92897 17.1782 5.70401 16.9905 5.60065C16.8029 5.50337 16.3088 5.49729 10.2857 5.46689L3.78097 5.43649L6.13893 3.49695C7.67128 2.23837 8.53441 1.48445 8.59695 1.35677C8.80961 0.919001 8.61572 0.329235 8.19041 0.110353C7.94648 -0.0234083 7.47739 -0.0355684 7.27099 0.0738726C7.19594 0.116433 5.57602 1.42973 3.66214 2.99838C1.32295 4.91968 0.159608 5.91681 0.0908079 6.04449C-0.0968276 6.43969 0.00949922 6.87138 0.378516 7.21186C0.997713 7.77123 7.31478 12.8481 7.48365 12.921C7.75259 13.0366 7.98401 13.0244 8.29048 12.8906C8.78459 12.6718 8.99724 12.0151 8.7283 11.5713C8.66575 11.4679 7.53368 10.5073 6.21398 9.44324C4.90053 8.37315 3.8185 7.48547 3.8185 7.46114C3.81225 7.43074 6.73311 7.4125 10.3107 7.4125L16.8029 7.4125L17.0093 7.27874C17.322 7.06594 17.4596 6.84706 17.4846 6.51874C17.4971 6.36065 17.4909 6.18433 17.4659 6.13569Z" fill="#D90A2C"/>
</svg>
