<svg width="15" height="15" viewBox="0 0 15 15" fill="none" xmlns="http://www.w3.org/2000/svg">
<path d="M0.0760562 8.31085C0.184479 8.3959 0.281182 8.3871 0.383745 8.28739L0.468726 8.20235L0.468726 5.09091C0.468725 2.96188 0.477517 1.93255 0.500959 1.82698C0.518542 1.74194 0.58594 1.56012 0.650409 1.42522C0.861396 0.979473 1.29216 0.6305 1.78739 0.498535C1.92512 0.460412 2.5698 0.454547 6.25329 0.454546C11.0269 0.454546 10.7016 0.439883 11.1177 0.651027C11.2642 0.724341 11.3902 0.821115 11.5455 0.979473L11.7653 1.20235L7.41371 1.21701C3.38152 1.23167 3.05039 1.23754 2.89508 1.28446C2.23574 1.4868 1.70241 1.94722 1.43868 2.54839C1.26579 2.94428 1.27751 2.61584 1.25993 7.40469L1.24528 11.7889L1.00792 11.5543C0.761763 11.3079 0.65334 11.1437 0.547847 10.8504C0.492169 10.6921 0.483378 10.5953 0.468726 9.8739C0.454075 9.07332 0.454075 9.07038 0.383745 9.01467C0.292904 8.94135 0.134663 8.94135 0.0555436 9.02053C-0.0030644 9.07918 -0.0030644 9.10264 0.00572759 9.93549C0.0174483 10.7361 0.0233096 10.8035 0.0848474 10.9824C0.295834 11.5836 0.65627 12.0059 1.19253 12.2815C1.32733 12.349 1.43575 12.4194 1.43575 12.434C1.43575 12.5073 1.71707 12.9179 1.8841 13.0909C2.05699 13.2669 2.42622 13.5396 2.54929 13.5777C2.58446 13.5894 2.65772 13.6979 2.73098 13.8358C2.82768 14.0235 2.91852 14.1408 3.13537 14.3578C3.37859 14.6041 3.45185 14.6569 3.69214 14.7742C4.13169 14.9853 4.23426 15 5.14853 15L5.9456 15L6.0042 14.9238C6.08625 14.8211 6.08039 14.7273 5.99541 14.6276L5.92508 14.5455L5.12216 14.5279C4.25477 14.5103 4.21375 14.5044 3.88554 14.3314C3.48701 14.1232 3.19691 13.7801 3.03573 13.3284L2.94489 13.0792L2.93903 10.176L2.93024 7.27273L2.92438 6.53959L2.9361 5.46921C2.95075 4.40469 2.95075 4.39883 3.02694 4.16422C3.21156 3.60411 3.64818 3.17889 4.21961 3L4.43938 2.93255L13.084 2.93255L13.3331 3.02346C13.7843 3.18475 14.1272 3.47507 14.3353 3.8739C14.5081 4.19941 14.5345 4.35777 14.5345 5.00293L14.5345 5.57185L14.5199 6.24634L14.5287 9.61877C14.5345 12.0557 14.5287 13.0352 14.5052 13.1525C14.3763 13.7742 13.8488 14.3196 13.2159 14.4868C13.0811 14.522 12.621 14.5308 10.2913 14.5308C7.35511 14.5308 7.39613 14.5279 7.34339 14.6628C7.30822 14.7566 7.3258 14.8827 7.38441 14.9414C7.44302 15 7.48111 15 10.2913 14.9971C13.0078 14.9971 13.1543 14.9941 13.3624 14.9414C13.4825 14.9091 13.6935 14.827 13.8312 14.7595C14.0334 14.6598 14.1331 14.5836 14.3587 14.3548C14.5873 14.129 14.6635 14.0293 14.7631 13.827C14.8305 13.6892 14.9125 13.4721 14.9448 13.3431C15.0034 13.1114 15.0034 13.0205 14.9975 8.65103L14.9887 4.19355L14.9096 3.97654C14.7719 3.60411 14.6342 3.39296 14.347 3.1085C14.1594 2.92082 14.0188 2.80938 13.8693 2.73314C13.6847 2.63636 13.6496 2.60411 13.5997 2.49267C13.5118 2.29326 13.3477 2.05865 13.166 1.8739C12.9931 1.69795 12.6298 1.44575 12.4745 1.39589C12.3983 1.3695 12.3602 1.32258 12.2723 1.14956C12.0085 0.639297 11.569 0.272728 10.9741 0.0703816L10.769 3.56647e-07L1.74344 1.11744e-06L1.50901 0.07918C1.16322 0.196482 0.922933 0.348975 0.644548 0.6305C0.363232 0.909092 0.210853 1.14956 0.0936375 1.4956L0.0145179 1.73021L0.00572718 4.9912L-0.000133832 8.24927L0.0760562 8.31085ZM11.9411 1.73021C12.3192 1.80938 12.7734 2.09677 12.9785 2.3871L13.0342 2.46334L8.72066 2.46334C3.84745 2.46334 4.19909 2.44575 3.698 2.69795C3.11485 2.9912 2.73098 3.46334 2.54343 4.11144L2.47603 4.34018L2.47603 12.9707L2.39984 12.915C2.35589 12.8856 2.25332 12.7859 2.17127 12.6979C1.98959 12.4985 1.83135 12.1818 1.77274 11.9062C1.70827 11.5982 1.70827 3.3871 1.77274 3.07918C1.91047 2.42229 2.46431 1.86804 3.12071 1.73021C3.4284 1.66569 11.6335 1.66569 11.9411 1.73021Z" fill="#FF552E"/>
<path d="M11.7482 6.13447C11.7787 6.16488 11.8029 6.20101 11.8194 6.24079C11.8359 6.28057 11.8444 6.32322 11.8443 6.3663C11.8443 6.40938 11.8358 6.45203 11.8193 6.49183C11.8028 6.53162 11.7785 6.56777 11.748 6.5982L7.16138 11.1849C7.13095 11.2154 7.0948 11.2396 7.055 11.2561C7.01521 11.2726 6.97255 11.2811 6.92948 11.2812C6.8864 11.2812 6.84375 11.2727 6.80397 11.2562C6.76418 11.2397 6.72805 11.2155 6.69764 11.185L4.40602 8.89341C4.34455 8.83193 4.31003 8.74854 4.31006 8.66157C4.31009 8.57461 4.34467 8.49119 4.40619 8.42967C4.46771 8.36815 4.55113 8.33358 4.63809 8.33354C4.72506 8.33351 4.80845 8.36803 4.86993 8.4295L6.92977 10.49L11.2845 6.13464C11.3149 6.10413 11.3511 6.07992 11.3908 6.06339C11.4306 6.04687 11.4733 6.03836 11.5164 6.03834C11.5595 6.03832 11.6021 6.04681 11.6419 6.0633C11.6817 6.0798 11.7178 6.10398 11.7482 6.13447Z" fill="#FF552E"/>
</svg>
