<svg width="32" height="32" viewBox="0 0 32 32" fill="none" xmlns="http://www.w3.org/2000/svg">
<path d="M25.29 19.8227C24.6349 19.1406 23.8447 18.7759 23.0072 18.7759C22.1765 18.7759 21.3795 19.1339 20.6974 19.816L18.5632 21.9434C18.3876 21.8489 18.212 21.7611 18.0432 21.6733C17.8 21.5517 17.5704 21.4369 17.3745 21.3153C15.3754 20.0456 13.5586 18.3909 11.8161 16.25C10.9719 15.1829 10.4046 14.2846 9.9926 13.3728C10.5464 12.8663 11.0597 12.3395 11.5595 11.833C11.7486 11.6439 11.9377 11.448 12.1268 11.2589C13.5451 9.8406 13.5451 8.00356 12.1268 6.58526L10.283 4.74147C10.0737 4.5321 9.85753 4.31597 9.65491 4.09985C9.24968 3.68112 8.82419 3.24887 8.3852 2.84364C7.73008 2.19527 6.94663 1.85083 6.12267 1.85083C5.2987 1.85083 4.50175 2.19527 3.82637 2.84364C3.81961 2.8504 3.81961 2.8504 3.81286 2.85715L1.51656 5.17371C0.652074 6.0382 0.159045 7.09179 0.0509843 8.31424C-0.111107 10.2864 0.469721 12.1234 0.915473 13.3256C2.00959 16.277 3.64402 19.0123 6.08214 21.9434C9.04032 25.4757 12.5996 28.265 16.6654 30.2304C18.2188 30.9665 20.2922 31.8378 22.6087 31.9864C22.7506 31.9931 22.8992 31.9999 23.0342 31.9999C24.5944 31.9999 25.9046 31.4393 26.9312 30.3249C26.9379 30.3114 26.9514 30.3047 26.9582 30.2912C27.3094 29.8657 27.7146 29.4807 28.1401 29.0687C28.4305 28.7918 28.7277 28.5014 29.0181 28.1975C29.6867 27.5018 30.0379 26.6914 30.0379 25.8607C30.0379 25.0232 29.68 24.2195 28.9978 23.5441L25.29 19.8227ZM27.7079 26.9345C27.7011 26.9345 27.7011 26.9413 27.7079 26.9345C27.4445 27.2182 27.1743 27.4748 26.8839 27.7585C26.4449 28.1772 25.9992 28.6162 25.5804 29.1092C24.8983 29.8387 24.0946 30.1831 23.041 30.1831C22.9397 30.1831 22.8316 30.1831 22.7303 30.1764C20.7244 30.048 18.8604 29.2646 17.4623 28.596C13.6397 26.7454 10.283 24.1182 7.49369 20.7885C5.19064 18.0127 3.65077 15.4463 2.63094 12.6907C2.00284 11.009 1.77321 9.69877 1.87452 8.46282C1.94205 7.67262 2.24598 7.0175 2.80654 6.45694L5.10959 4.15388C5.44053 3.84321 5.79173 3.67436 6.13617 3.67436C6.56167 3.67436 6.90611 3.93101 7.12223 4.14713C7.12899 4.15388 7.13574 4.16064 7.14249 4.16739C7.55448 4.55236 7.9462 4.95083 8.35818 5.37632C8.56755 5.59245 8.78367 5.80857 8.99979 6.03145L10.8436 7.87524C11.5595 8.59114 11.5595 9.25302 10.8436 9.96892C10.6477 10.1648 10.4586 10.3606 10.2628 10.5497C9.69544 11.1306 9.15513 11.6709 8.56755 12.1977C8.55404 12.2112 8.54053 12.2179 8.53378 12.2315C7.95295 12.8123 8.06101 13.3796 8.18258 13.7646C8.18933 13.7848 8.19609 13.8051 8.20284 13.8254C8.68236 14.987 9.35775 16.0811 10.3843 17.3846L10.3911 17.3914C12.2551 19.6877 14.2205 21.4774 16.3885 22.8485C16.6654 23.0241 16.949 23.1659 17.2192 23.301C17.4623 23.4225 17.692 23.5373 17.8878 23.6589C17.9148 23.6724 17.9418 23.6927 17.9689 23.7062C18.1985 23.821 18.4146 23.875 18.6375 23.875C19.1981 23.875 19.5493 23.5238 19.6641 23.409L21.9739 21.0992C22.2035 20.8696 22.5682 20.5927 22.9937 20.5927C23.4124 20.5927 23.7569 20.8561 23.9663 21.0857C23.973 21.0925 23.973 21.0925 23.9798 21.0992L27.7011 24.8206C28.3968 25.5095 28.3968 26.2186 27.7079 26.9345Z" fill="white"/>
<path d="M17.2935 7.61219C19.063 7.90936 20.6704 8.74683 21.9536 10.0301C23.2368 11.3133 24.0675 12.9207 24.3715 14.6902C24.4458 15.1359 24.8307 15.4466 25.2697 15.4466C25.3238 15.4466 25.371 15.4399 25.4251 15.4331C25.9248 15.3521 26.2558 14.8793 26.1747 14.3795C25.81 12.2386 24.797 10.2867 23.2503 8.74008C21.7037 7.19345 19.7519 6.18038 17.6109 5.81567C17.1111 5.73463 16.6451 6.06556 16.5573 6.55859C16.4695 7.05162 16.7937 7.53114 17.2935 7.61219Z" fill="white"/>
<path d="M31.9628 14.1159C31.3617 10.5904 29.7002 7.38232 27.1473 4.82937C24.5944 2.27643 21.3863 0.61499 17.8608 0.0139004C17.3678 -0.0738993 16.9018 0.263792 16.814 0.75682C16.7329 1.2566 17.0638 1.72262 17.5636 1.81042C20.7109 2.34397 23.5813 3.83656 25.8641 6.1126C28.1469 8.39539 29.6327 11.2658 30.1663 14.413C30.2405 14.8588 30.6255 15.1695 31.0645 15.1695C31.1185 15.1695 31.1658 15.1627 31.2199 15.156C31.7129 15.0817 32.0506 14.6089 31.9628 14.1159Z" fill="white"/>
</svg>
