<svg width="35" height="35" viewBox="0 0 35 35" fill="none" xmlns="http://www.w3.org/2000/svg">
<path d="M27.6186 17.2477C27.5477 17.0877 27.3969 16.9362 27.2328 16.8646C27.082 16.8015 26.9401 16.7847 26.4079 16.7847C25.8225 16.7847 25.7426 16.7931 25.5652 16.8815C25.2947 17.0078 25.1572 17.2393 25.1794 17.5129C25.2016 17.7402 25.2991 17.8959 25.5209 18.039C25.6584 18.1274 25.7116 18.1316 26.4079 18.1316C27.1042 18.1316 27.1574 18.1274 27.2949 18.039C27.5166 17.8917 27.6142 17.7402 27.6319 17.5129C27.6408 17.4034 27.6364 17.2814 27.6186 17.2477Z" fill="#D90A2C"/>
<path d="M23.8711 17.1214C23.8134 17.0456 23.7114 16.9404 23.6449 16.8941C23.5207 16.8099 23.4719 16.8057 21.9729 16.8057C20.4739 16.8057 20.4251 16.8099 20.3009 16.8941C20.0614 17.0624 19.9683 17.2434 19.986 17.5044C20.0082 17.778 20.1279 17.9632 20.3497 18.0642C20.4783 18.1232 20.7045 18.1316 21.9818 18.1316C23.4276 18.1316 23.4631 18.1274 23.6316 18.0348C23.9598 17.858 24.0751 17.4076 23.8711 17.1214Z" fill="#D90A2C"/>
<path d="M18.7486 17.2478C18.6865 17.1047 18.5446 16.9489 18.4115 16.8774C18.2785 16.81 17.9281 16.8058 13.6572 16.7848L9.04475 16.7637L10.7167 15.421C11.8033 14.5496 12.4154 14.0277 12.4597 13.9393C12.6105 13.6362 12.473 13.2279 12.1714 13.0764C11.9985 12.9838 11.6658 12.9754 11.5195 13.0511C11.4663 13.0806 10.3176 13.9898 8.96048 15.0758C7.30178 16.4059 6.47687 17.0963 6.42808 17.1846C6.29503 17.4583 6.37043 17.7571 6.63209 17.9928C7.07116 18.3801 11.5505 21.8948 11.6703 21.9453C11.861 22.0253 12.0251 22.0169 12.2424 21.9243C12.5928 21.7728 12.7436 21.3182 12.5528 21.0109C12.5085 20.9393 11.7058 20.2743 10.77 19.5376C9.83862 18.7968 9.07136 18.1822 9.07136 18.1654C9.06692 18.1444 11.1381 18.1317 13.6749 18.1317L18.2785 18.1317L18.4248 18.0391C18.6466 17.8918 18.7441 17.7403 18.7619 17.513C18.7708 17.4035 18.7663 17.2815 18.7486 17.2478Z" fill="#D90A2C"/>
<circle cx="17.5" cy="17.5" r="17" transform="rotate(180 17.5 17.5)" stroke="#D90A2C"/>
</svg>
