<svg width="28" height="28" viewBox="0 0 28 28" fill="none" xmlns="http://www.w3.org/2000/svg">
<path d="M12.7109 0.148413C9.69922 0.511694 7.28516 1.53123 5.04688 3.37693C2.97266 5.09958 1.33789 7.64255 0.611328 10.291C0.224609 11.6914 0.142578 12.3301 0.142578 14C0.142578 15.3008 0.160156 15.5937 0.277344 16.2441C0.810547 19.2207 2.11719 21.7519 4.18555 23.8144C6.27734 25.9121 8.90234 27.248 11.9199 27.7519C12.9219 27.916 15.2305 27.9043 16.2441 27.7226C17.2168 27.5468 18.2656 27.2597 19.0391 26.9492C23.7031 25.0918 26.9141 21.084 27.752 16.08C27.834 15.5761 27.8574 15.1191 27.8574 14C27.8574 12.8808 27.834 12.4238 27.752 11.9199C27.084 7.91794 24.8984 4.53122 21.5762 2.35154C20.457 1.61912 18.9102 0.92771 17.6328 0.587866C16.3613 0.248022 15.6816 0.160131 14.2344 0.142553C13.5078 0.130835 12.8223 0.136694 12.7109 0.148413ZM15.4941 1.70115C17.8438 1.97068 20.1406 2.97849 22.0273 4.55466C24.3066 6.45896 25.8418 9.25974 26.2754 12.3008C26.3984 13.1914 26.3984 14.8086 26.2754 15.6992C25.6895 19.8359 23.1699 23.3047 19.4258 25.1328C17.668 25.9941 16.0098 26.3691 14 26.3691C11.9961 26.3691 10.3672 26 8.58008 25.1328C4.84766 23.3281 2.31641 19.8418 1.72461 15.6933C1.60156 14.8203 1.60156 13.1855 1.72461 12.3242C1.77148 11.9668 1.89453 11.3515 1.98828 10.959C2.58594 8.50974 4.04492 6.16599 5.97266 4.55466C8.67383 2.29294 11.9844 1.30271 15.4941 1.70115Z" fill="#FF552E"/>
<path d="M12.8868 3.42966C8.70903 3.94529 5.26372 6.71091 3.95122 10.6074C3.72856 11.2695 3.69926 11.5683 3.83403 11.832C4.00395 12.1601 4.51958 12.289 4.85356 12.0898C5.07036 11.9609 5.10551 11.8906 5.35161 11.1523C5.62114 10.3437 5.97856 9.6113 6.44731 8.90232C6.94536 8.15232 8.14653 6.94529 8.90239 6.44724C10.2676 5.5449 11.7852 5.02927 13.3555 4.92966C16.004 4.75974 18.4239 5.63279 20.2754 7.42576C21.4883 8.59177 22.2911 9.91013 22.754 11.4804C22.9063 11.9961 23.1231 12.1836 23.5625 12.1836C23.8028 12.1836 23.8672 12.1543 24.0489 11.9785C24.2247 11.7969 24.254 11.7324 24.254 11.4863C24.254 11.123 23.9375 10.1914 23.5215 9.34177C22.0743 6.35349 19.2911 4.2324 15.9629 3.57029C15.4649 3.47068 15.0665 3.43552 14.2051 3.42381C13.5957 3.41209 12.9981 3.41795 12.8868 3.42966Z" fill="#FF552E"/>
<path d="M14.375 9.48242C14.0996 9.65234 14 9.82812 14 10.1562V10.4492L15.3887 11.8437L16.7773 13.2383H14.1289C11.1992 13.2383 11.1758 13.2383 10.9531 13.6015C10.8066 13.8476 10.8066 14.1523 10.9531 14.3984C11.1758 14.7617 11.1992 14.7617 14.1289 14.7617H16.7773L15.3887 16.1562L14 17.5508V17.8496C14 18.084 14.0293 18.1894 14.1465 18.3242C14.3398 18.5527 14.5918 18.6523 14.8613 18.5996C15.0547 18.5644 15.3477 18.3008 17.123 16.5312C18.248 15.4121 19.2031 14.4277 19.25 14.3398C19.3555 14.1348 19.3555 13.8594 19.25 13.6601C19.1211 13.4141 15.166 9.49999 14.9785 9.42968C14.7383 9.34179 14.5801 9.35937 14.375 9.48242Z" fill="#FF552E"/>
<path d="M9.0956 13.3261C8.52724 13.5722 8.54482 14.4452 9.11903 14.6796C9.412 14.8027 9.69911 14.7382 9.93935 14.498C10.1034 14.3339 10.1327 14.2636 10.1327 14.0116C10.1327 13.6718 9.98622 13.4433 9.68739 13.3202C9.44716 13.2206 9.33583 13.2206 9.0956 13.3261Z" fill="#FF552E"/>
<path d="M6.69336 20.2988C6.4707 20.3926 6.26562 20.6973 6.26562 20.9316C6.26562 21.3008 6.46484 21.5352 7.4668 22.3555C7.94727 22.748 8.65625 23.1934 9.3418 23.5215C13.2852 25.4199 17.7324 24.8105 21.0723 21.9102C21.5645 21.4766 21.7344 21.2305 21.7344 20.9258C21.7344 20.6855 21.5059 20.375 21.2539 20.2813C20.9082 20.1465 20.668 20.2285 20.252 20.6152C18.8398 21.9336 17.0938 22.7656 15.2363 23.0234C14.6211 23.1055 13.3789 23.1055 12.7637 23.0234C10.9648 22.7773 9.27148 21.9805 7.87695 20.7324C7.26172 20.1875 7.0918 20.123 6.69336 20.2988Z" fill="#FF552E"/>
</svg>
