<svg width="28" height="28" viewBox="0 0 28 28" fill="none" xmlns="http://www.w3.org/2000/svg">
<path d="M15.2891 27.8516C18.3008 27.4883 20.7148 26.4688 22.9531 24.6231C25.0273 22.9004 26.6621 20.3574 27.3887 17.709C27.7754 16.3086 27.8574 15.6699 27.8574 14C27.8574 12.6992 27.8398 12.4063 27.7227 11.7559C27.1895 8.77933 25.8828 6.24808 23.8145 4.18558C21.7227 2.08792 19.0977 0.751983 16.0801 0.248077C15.0781 0.0840143 12.7695 0.0957333 11.7559 0.277374C10.7832 0.453155 9.73438 0.740265 8.96094 1.05081C4.29688 2.90823 1.08594 6.91605 0.248048 11.92C0.166017 12.4239 0.142579 12.8809 0.142579 14C0.142579 15.1192 0.166017 15.5762 0.248048 16.0801C0.916017 20.0821 3.10156 23.4688 6.42383 25.6485C7.54297 26.3809 9.08985 27.0723 10.3672 27.4121C11.6387 27.752 12.3184 27.8399 13.7656 27.8574C14.4922 27.8692 15.1777 27.8633 15.2891 27.8516ZM12.5059 26.2989C10.1563 26.0293 7.85938 25.0215 5.97266 23.4453C3.69336 21.541 2.1582 18.7403 1.72461 15.6992C1.60156 14.8086 1.60156 13.1914 1.72461 12.3008C2.31055 8.16409 4.83008 4.69534 8.57422 2.86722C10.332 2.00589 11.9902 1.63089 14 1.63089C16.0039 1.63089 17.6328 2.00003 19.4199 2.86722C23.1523 4.6719 25.6836 8.15823 26.2754 12.3067C26.3984 13.1797 26.3984 14.8145 26.2754 15.6758C26.2285 16.0332 26.1055 16.6485 26.0117 17.041C25.4141 19.4903 23.9551 21.834 22.0273 23.4453C19.3262 25.7071 16.0156 26.6973 12.5059 26.2989Z" fill="#FF552E"/>
<path d="M15.1134 24.5703C19.2911 24.0547 22.7364 21.2891 24.0489 17.3926C24.2716 16.7305 24.3009 16.4317 24.1661 16.168C23.9962 15.8399 23.4805 15.711 23.1466 15.9102C22.9298 16.0391 22.8946 16.1094 22.6485 16.8477C22.379 17.6563 22.0216 18.3887 21.5528 19.0977C21.0548 19.8477 19.8536 21.0547 19.0977 21.5528C17.7325 22.4551 16.2149 22.9707 14.6446 23.0703C11.9962 23.2403 9.57625 22.3672 7.72469 20.5742C6.5118 19.4082 5.70906 18.0899 5.24617 16.5196C5.09383 16.0039 4.87703 15.8164 4.43758 15.8164C4.19734 15.8164 4.13289 15.8457 3.95125 16.0215C3.77547 16.2032 3.74617 16.2676 3.74617 16.5137C3.74617 16.877 4.06258 17.8086 4.47859 18.6582C5.92586 21.6465 8.70906 23.7676 12.0372 24.4297C12.5352 24.5293 12.9337 24.5645 13.795 24.5762C14.4044 24.5879 15.002 24.5821 15.1134 24.5703Z" fill="#FF552E"/>
<path d="M13.625 18.5176C13.9004 18.3477 14 18.1719 14 17.8438L14 17.5508L12.6113 16.1563L11.2227 14.7617L13.8711 14.7617C16.8008 14.7617 16.8242 14.7617 17.0469 14.3985C17.1934 14.1524 17.1934 13.8477 17.0469 13.6016C16.8242 13.2383 16.8008 13.2383 13.8711 13.2383L11.2227 13.2383L12.6113 11.8438L14 10.4492L14 10.1504C14 9.91604 13.9707 9.81057 13.8535 9.6758C13.6602 9.44729 13.4082 9.34768 13.1387 9.40041C12.9453 9.43557 12.6523 9.69924 10.877 11.4688C9.75195 12.5879 8.79688 13.5723 8.75 13.6602C8.64453 13.8652 8.64453 14.1406 8.75 14.3399C8.87891 14.586 12.834 18.5 13.0215 18.5703C13.2617 18.6582 13.4199 18.6406 13.625 18.5176Z" fill="#FF552E"/>
<path d="M18.9043 14.6739C19.4726 14.4278 19.4551 13.5548 18.8808 13.3204C18.5879 13.1973 18.3008 13.2618 18.0605 13.502C17.8965 13.6661 17.8672 13.7364 17.8672 13.9884C17.8672 14.3282 18.0137 14.5567 18.3125 14.6798C18.5527 14.7794 18.664 14.7794 18.9043 14.6739Z" fill="#FF552E"/>
<path d="M21.3066 7.70117C21.5293 7.60742 21.7344 7.30273 21.7344 7.06836C21.7344 6.69922 21.5352 6.46484 20.5332 5.64453C20.0527 5.25195 19.3438 4.80664 18.6582 4.47852C14.7148 2.58008 10.2676 3.18946 6.92773 6.08985C6.43555 6.52344 6.26563 6.76953 6.26563 7.07422C6.26563 7.31445 6.49414 7.625 6.74609 7.71875C7.0918 7.85352 7.33203 7.77149 7.74805 7.38477C9.16016 6.06641 10.9063 5.23438 12.7637 4.97656C13.3789 4.89453 14.6211 4.89453 15.2363 4.97656C17.0352 5.22266 18.7285 6.01953 20.123 7.26758C20.7383 7.8125 20.9082 7.87695 21.3066 7.70117Z" fill="#FF552E"/>
</svg>
