<svg width="35" height="35" viewBox="0 0 35 35" fill="none" xmlns="http://www.w3.org/2000/svg">
<path d="M7.38136 17.7523C7.45232 17.9123 7.60311 18.0638 7.7672 18.1354C7.91799 18.1985 8.05991 18.2153 8.59212 18.2153C9.17754 18.2153 9.25737 18.2069 9.43477 18.1185C9.70531 17.9922 9.84279 17.7607 9.82062 17.4871C9.79844 17.2598 9.70087 17.1041 9.47912 16.961C9.34164 16.8726 9.28842 16.8684 8.59212 16.8684C7.89582 16.8684 7.8426 16.8726 7.70511 16.961C7.48336 17.1083 7.38579 17.2598 7.36805 17.4871C7.35918 17.5966 7.36362 17.7186 7.38136 17.7523Z" fill="#D90A2C"/>
<path d="M11.1289 17.8786C11.1866 17.9544 11.2886 18.0596 11.3551 18.1059C11.4793 18.1901 11.5281 18.1943 13.0271 18.1943C14.5261 18.1943 14.5749 18.1901 14.6991 18.1059C14.9386 17.9376 15.0317 17.7566 15.014 17.4956C14.9918 17.222 14.8721 17.0368 14.6503 16.9358C14.5217 16.8768 14.2955 16.8684 13.0182 16.8684C11.5724 16.8684 11.5369 16.8726 11.3684 16.9652C11.0402 17.142 10.9249 17.5924 11.1289 17.8786Z" fill="#D90A2C"/>
<path d="M16.2514 17.7522C16.3135 17.8953 16.4554 18.0511 16.5885 18.1226C16.7215 18.19 17.0719 18.1942 21.3428 18.2152L25.9553 18.2363L24.2833 19.579C23.1967 20.4504 22.5846 20.9723 22.5403 21.0607C22.3895 21.3638 22.527 21.7721 22.8286 21.9236C23.0015 22.0162 23.3342 22.0246 23.4805 21.9489C23.5337 21.9194 24.6824 21.0102 26.0395 19.9242C27.6982 18.5941 28.5231 17.9037 28.5719 17.8154C28.705 17.5417 28.6296 17.2429 28.3679 17.0072C27.9288 16.6199 23.4495 13.1052 23.3297 13.0547C23.139 12.9747 22.9749 12.9831 22.7576 13.0757C22.4072 13.2272 22.2564 13.6818 22.4472 13.9891C22.4915 14.0607 23.2942 14.7257 24.23 15.4624C25.1614 16.2032 25.9286 16.8178 25.9286 16.8346C25.9331 16.8556 23.8619 16.8683 21.3251 16.8683L16.7215 16.8683L16.5752 16.9609C16.3534 17.1082 16.2559 17.2597 16.2381 17.487C16.2292 17.5965 16.2337 17.7185 16.2514 17.7522Z" fill="#D90A2C"/>
<circle cx="17.5" cy="17.5" r="17" stroke="#D90A2C"/>
</svg>
